<svg xmlns="http://www.w3.org/2000/svg" viewBox="0 0 32 32" id="allocatedstock"><path d="M5 8a2.995 2.995 0 0 0 2.816-2H12v2a1 1 0 1 0 2 0V5a1 1 0 0 0-1-1H7.816A2.995 2.995 0 0 0 5 2C3.346 2 2 3.346 2 5s1.346 3 3 3zm0-4a1.001 1.001 0 1 1-1 1c0-.551.448-1 1-1zm22 20a2.995 2.995 0 0 0-2.816 2H20v-2a1 1 0 1 0-2 0v3a1 1 0 0 0 1 1h5.184A2.995 2.995 0 0 0 27 30c1.654 0 3-1.346 3-3s-1.346-3-3-3zm0 4a1.001 1.001 0 0 1 0-2 1.001 1.001 0 0 1 0 2zM19 9a1 1 0 0 0 1-1V6h4.184A2.995 2.995 0 0 0 27 8c1.654 0 3-1.346 3-3s-1.346-3-3-3a2.995 2.995 0 0 0-2.816 2H19a1 1 0 0 0-1 1v3a1 1 0 0 0 1 1zm8-5a1.001 1.001 0 1 1-1 1c0-.551.448-1 1-1zM13 23a1 1 0 0 0-1 1v2H7.816A2.995 2.995 0 0 0 5 24c-1.654 0-3 1.346-3 3s1.346 3 3 3a2.995 2.995 0 0 0 2.816-2H13a1 1 0 0 0 1-1v-3a1 1 0 0 0-1-1zm-8 5a1.001 1.001 0 0 1 0-2 1.001 1.001 0 0 1 0 2zm18-8.5v-7a1 1 0 0 0-.475-.85c-.02-.013-6.077-3.045-6.077-3.045a1.001 1.001 0 0 0-.895 0s-6.057 3.03-6.079 3.044A1 1 0 0 0 9 12.5v7a1 1 0 0 0 .553.895l6 3a1 1 0 0 0 .894 0l6-3A1 1 0 0 0 23 19.5zm-8 1.382-4-2v-4.764l4 2v4.764zm1-6.5L12.236 12.5 16 10.618l3.764 1.882L16 14.382zm5 4.5-4 2v-4.764l4-2v4.764z" fill="#1574e2" class="color000000 svgShape"></path></svg>