<svg xmlns="http://www.w3.org/2000/svg" version="1.1" xmlnsXlink="http://www.w3.org/1999/xlink" xmlnssvgjs="http://svgjs.dev/svgjs" viewBox="0 0 800 800" opacity="1"><defs><linearGradient x1="50%" y1="0%" x2="50%" y2="100%" id="wwwhirl-grad"><stop stop-color="hsla(219, 73%, 55%, 1.00)" stop-opacity="1" offset="45%"></stop><stop stop-color="hsla(0, 0%, 0%, 0.00)" stop-opacity="1" offset="100%"></stop></linearGradient></defs><g stroke-width="2" stroke="url(#wwwhirl-grad)" fill="none" stroke-linecap="round"><path d="M-349.25 535.8050195634364C-302.421875 491.0256250321865 -68.28125 179.3259180009365 25.375 177.5698633134365C119.03125 175.8138086259365 306.34375 509.4641992509365 400 521.7565820634366C493.65625 534.0489648759365 680.96875 263.32386721968646 774.625 275.9089258134365C868.28125 288.49398440718653 1102.421875 579.1210351884365 1149.25 622.4370508134364 " transform="rotate(64.75, 400, 400)"></path><path d="M-329 532.1346117734909C-283.4375 488.5654711484909 -55.625 185.2900805234909 35.5 183.5814867734909C126.625 181.87289302349092 308.875 506.50570552349086 400 518.4658617734908C491.125 530.4260180234909 673.375 267.0178148984909 764.5 279.26273677349093C855.625 291.50765864849086 1083.4375 574.2799242734909 1129 616.4252367734908 " transform="rotate(63, 400, 400)"></path><path d="M-308.75 528.4642039835453C-264.453125 486.1053172647953 -42.96875 191.2542430460453 45.625 189.5931102335453C134.21875 187.9319774210453 311.40625 503.5472117960453 400 515.1751414835453C488.59375 526.8030711710453 665.78125 270.7117625772953 754.375 282.6165477335453C842.96875 294.5213328897953 1064.453125 569.4388133585453 1108.75 610.4134227335453 " transform="rotate(61.25, 400, 400)"></path><path d="M-288.5 524.7937961935997C-245.46875 483.6451633810997 -30.3125 197.2184055685997 55.75 195.6047336935997C141.8125 193.9910618185997 313.9375 500.5887180685997 400 511.8844211935997C486.0625 523.1801243185996 658.1875 274.4057102560997 744.25 285.9703586935997C830.3125 297.5350071310997 1045.46875 564.5977024435997 1088.5 604.4016086935997 " transform="rotate(59.5, 400, 400)"></path><path d="M-268.25 521.1233884036541C-226.484375 481.1850094974041 -17.65625 203.1825680911541 65.875 201.6163571536541C149.40625 200.0501462161541 316.46875 497.6302243411541 400 508.5937009036541C483.53125 519.5571774661541 650.59375 278.0996579349041 734.125 289.32416965365405C817.65625 300.5486813724041 1026.484375 559.7565915286541 1068.25 598.3897946536541 " transform="rotate(57.75, 400, 400)"></path><path d="M-248 517.4529806137084C-207.5 478.7248556137085 -5 209.14673061370848 76 207.6279806137085C157 206.1092306137085 319 494.67173061370846 400 505.3029806137085C481 515.9342306137085 643 281.7936056137085 724 292.6779806137085C805 303.5623556137085 1007.5 554.9154806137085 1048 592.3779806137085 " transform="rotate(56, 400, 400)"></path><path d="M-227.75 513.7825804531574C-188.515625 476.2647093594074 7.65625 215.11090076565742 86.125 213.6396117031574C164.59375 212.16832264065744 321.53125 491.7132445156574 400 502.0122679531574C478.46875 512.3112913906574 635.40625 285.4875609219074 713.875 296.03179920315745C792.34375 306.5760374844074 988.515625 550.0743773281574 1027.75 586.3661742031575 " transform="rotate(54.25, 400, 400)"></path><path d="M-207.5 510.1121650338173C-169.53125 473.8045478463173 20.3125 221.0750556588173 96.25 219.6512275338173C172.1875 218.2273994088173 324.0625 488.7547431588173 400 498.7215400338173C475.9375 508.6883369088173 627.8125 289.1815009713173 703.75 299.3856025338173C779.6875 309.5897040963173 969.53125 545.2332587838173 1007.5 580.3543525338173 " transform="rotate(52.5, 400, 400)"></path><path d="M-187.25 506.4417648732662C-150.546875 471.3444015920162 32.96875 227.03922581076623 106.375 225.66285862326623C179.78125 224.2864914357662 326.59375 485.7962570607662 400 495.4308273732662C473.40625 505.0653976857662 620.21875 292.87545627951624 693.625 302.7394211232662C767.03125 312.6033859670162 950.546875 540.3921554982662 987.25 574.3425461232662 " transform="rotate(50.75, 400, 400)"></path><path d="M-167 502.77134945392606C-131.5625 468.88424007892604 45.625 233.0033807039261 116.5 231.67447445392608C187.375 230.3455682039261 329.125 482.83775570392606 400 492.14009945392604C470.875 501.4424432039261 612.625 296.5693963289261 683.5 306.0932244539261C754.375 315.61705257892606 931.5625 535.5510369539261 967 568.330724453926 " transform="rotate(49, 400, 400)"></path><path d="M-146.75 499.10096455216404C-112.578125 466.42410908341407 58.28125 238.96756611466407 126.625 237.68612080216408C194.96875 236.40467548966407 331.65625 479.8792848646641 400 488.84940205216407C468.34375 497.81951923966403 605.03125 300.2633668959141 673.375 309.44705830216407C741.71875 318.6307497084141 912.578125 530.7099489271641 946.75 562.318933302164 " transform="rotate(47.25, 400, 400)"></path><path d="M-126.5 495.4305491328239C-93.59375 463.9639475703239 70.9375 244.93172100782394 136.75 243.69773663282393C202.5625 242.46375225782396 334.1875 476.9207835078239 400 485.5586741328239C465.8125 494.1965647578239 597.4375 303.9573069453239 663.25 312.80086163282397C729.0625 321.6444163203239 893.59375 525.868830382824 926.5 556.3071116328239 " transform="rotate(45.5, 400, 400)"></path><path d="M-106.25 491.7601489722729C-74.609375 461.5038013160229 83.59375 250.89589115977287 146.875 249.70936772227287C210.15625 248.52284428477287 336.71875 473.9622974097729 400 482.2679614722729C463.28125 490.5736255347729 589.84375 307.6512622535229 653.125 316.1546802222729C716.40625 324.6580981910229 874.609375 521.0277270972729 906.25 550.2953052222729 " transform="rotate(43.75, 400, 400)"></path><path d="M-86 488.0897488117218C-55.625 459.0436550617218 96.25 256.8600613117218 157 255.7209988117218C217.75 254.5819363117218 339.25 471.0038113117218 400 478.9772488117218C460.75 486.9506863117218 582.25 311.3452175617218 643 319.5084988117218C703.75 327.6717800617218 855.625 516.1866238117218 886 544.2834988117218 " transform="rotate(42, 400, 400)"></path><path d="M-65.75 484.41933339238165C-36.640625 456.5834935486316 108.90625 262.8242162048817 167.125 261.7326146423817C225.34375 260.64101307988165 341.78125 468.04530995488165 400 475.6865208923816C458.21875 483.3277318298816 574.65625 315.03915761113166 632.875 322.8623021423817C691.09375 330.68544667363165 836.640625 511.34550526738167 865.75 538.2716771423816 " transform="rotate(40.25, 400, 400)"></path><path d="M-45.5 480.74893323183056C-17.65625 454.12334729433053 121.5625 268.7883863568306 177.25 267.7442457318306C232.9375 266.7001051068306 344.3125 465.08682385683056 400 472.39580823183053C455.6875 479.70479260683055 567.0625 318.7331129193306 622.75 326.2161207318306C678.4375 333.6991285443306 817.65625 506.50440198183054 845.5 532.2598707318306 " transform="rotate(38.5, 400, 400)"></path><path d="M-25.25 477.0785178124904C1.328125 451.6631857812405 134.21875 274.7525412499905 187.375 273.75586156249045C240.53125 272.7591818749905 346.84375 462.1283224999904 400 469.1050803124905C453.15625 476.08183812499044 559.46875 322.42705296874044 612.625 329.5699240624905C665.78125 336.7127951562405 798.671875 501.66328343749046 825.25 526.2480490624905 " transform="rotate(36.75, 400, 400)"></path><path d="M-5 473.4081176519394C20.3125 449.2030395269394 146.875 280.7167114019394 197.5 279.7674926519394C248.125 278.8182739019394 349.375 459.1698364019394 400 465.8143676519394C450.625 472.4588989019394 551.875 326.1210082769394 602.5 332.9237426519394C653.125 339.7264770269394 779.6875 496.8221801519394 805 520.2362426519394 " transform="rotate(35, 400, 400)"></path><path d="M15.25 469.7377174913883C39.296875 446.7428932726383 159.53125 286.6808815538883 207.625 285.77912374138833C255.71875 284.8773659288883 351.90625 456.2113503038883 400 462.5236549913883C448.09375 468.83595967888834 544.28125 329.81496358513834 592.375 336.2775612413883C640.46875 342.7401588976383 760.703125 491.9810768663883 784.75 514.2244362413883 " transform="rotate(33.25, 400, 400)"></path><path d="M35.5 466.06730207204816C58.28125 444.28273175954814 172.1875 292.6450364470482 217.75 291.7907395720482C263.3125 290.93644269704816 354.4375 453.25284894704816 400 459.23292707204814C445.5625 465.2130051970482 536.6875 333.5089036345482 582.25 339.6313645720482C627.8125 345.75382550954816 741.71875 487.1399583220482 764.5 508.21261457204815 " transform="rotate(31.5, 400, 400)"></path><path d="M55.75 462.39690191149714C77.265625 441.8225855052471 184.84375 298.6092065989971 227.875 297.8023706614971C270.90625 296.99553472399714 356.96875 450.29436284899714 400 455.9422144114971C443.03125 461.59006597399707 529.09375 337.2028589427471 572.125 342.9851831614971C615.15625 348.76750738024714 722.734375 482.2988550364971 744.25 502.2008081614971 " transform="rotate(29.75, 400, 400)"></path><path d="M76 458.72649412155147C96.25 439.36243162155154 197.5 304.57336912155154 238 303.8139941215515C278.5 303.0546191215515 359.5 447.33586912155147 400 452.65149412155154C440.5 457.9671191215515 521.5 340.8968066215515 562 346.33899412155154C602.5 351.7811816215515 703.75 477.4577441215515 724 496.1889941215515 " transform="rotate(28, 400, 400)"></path><path d="M96.25 455.0560863316059C115.234375 436.9022777378559 210.15625 310.5375316441059 248.125 309.8256175816059C286.09375 309.1137035191059 362.03125 444.3773753941059 400 449.3607738316059C437.96875 454.3441722691059 513.90625 344.5907543003559 551.875 349.6928050816059C589.84375 354.7948558628559 684.765625 472.6166332066059 703.75 490.1771800816059 " transform="rotate(26.25, 400, 400)"></path><path d="M116.5 451.3856785416603C134.21875 434.4421238541603 222.8125 316.5016941666603 258.25 315.8372410416603C293.6875 315.1727879166603 364.5625 441.4188816666603 400 446.0700535416603C435.4375 450.72122541666033 506.3125 348.28470197916033 541.75 353.0466160416603C577.1875 357.8085301041603 665.78125 467.7755222916603 683.5 484.16536604166026 " transform="rotate(24.5, 400, 400)"></path><path d="M136.75 447.7152783811092C153.203125 431.9819775998592 235.46875 322.46586431860925 268.375 321.84887213110926C301.28125 321.2318799436092 367.09375 438.4603955686092 400 442.7793408811092C432.90625 447.0982861936092 498.71875 351.9786572873592 531.625 356.40043463110925C564.53125 360.8222119748592 646.796875 462.93441900610924 663.25 478.1535596311092 " transform="rotate(22.75, 400, 400)"></path><path d="M157 444.04487059116366C172.1875 429.5218237161636 248.125 328.4300268411636 278.5 327.8604955911636C308.875 327.29096434116366 369.625 435.50190184116366 400 439.4886205911636C430.375 443.47533934116365 491.125 355.67260496616365 521.5 359.7542455911636C551.875 363.83588621616366 627.8125 458.09330809116364 643 472.1417455911636 " transform="rotate(21, 400, 400)"></path><path d="M177.25 440.374462801218C191.171875 427.061669832468 260.78125 334.39418936371806 288.625 333.872119051218C316.46875 333.35004873871804 372.15625 432.543408113718 400 436.197900301218C427.84375 439.852392488718 483.53125 359.366552644968 511.375 363.10805655121806C539.21875 366.84956045746804 608.828125 453.25219717621803 622.75 466.129931551218 " transform="rotate(19.25, 400, 400)"></path><path d="M197.5 436.7040588259697C210.15625 424.6015197634697 273.4375 340.3583557009697 298.75 339.8837463259697C324.0625 339.4091369509697 374.6875 429.5849182009697 400 432.9071838259697C425.3125 436.2294494509697 475.9375 363.0605041384697 501.25 366.4618713259697C526.5625 369.8632385134697 589.84375 448.4110900759697 602.5 460.1181213259697 " transform="rotate(17.5, 400, 400)"></path><path d="M217.75 433.03365485072135C229.140625 422.14136969447134 286.09375 346.32252203822134 308.875 345.89537360072137C331.65625 345.46822516322135 377.21875 426.62642828822135 400 429.61646735072134C422.78125 432.6065064132214 468.34375 366.7544556319714 491.125 369.81568610072134C513.90625 372.87691656947135 570.859375 443.56998297572136 582.25 454.1063111007213 " transform="rotate(15.75, 400, 400)"></path><path d="M238 429.36324706077573C248.125 419.68121581077577 298.75 352.28668456077577 319 351.9069970607758C339.25 351.52730956077573 379.75 423.66793456077573 400 426.32574706077577C420.25 428.98355956077575 460.75 370.44840331077575 481 373.16949706077577C501.25 375.89059081077573 551.875 438.72887206077576 562 448.0944970607758 " transform="rotate(14, 400, 400)"></path><path d="M258.25 425.69284308552744C267.109375 417.2210657417774 311.40625 358.2508508980274 329.125 357.9186243355274C346.84375 357.58639777302744 382.28125 420.70944464802744 400 423.0350305855274C417.71875 425.36061652302743 453.15625 374.14235480427743 470.875 376.5233118355274C488.59375 378.90426886677744 532.890625 433.8877649605274 541.75 442.0826868355274 " transform="rotate(12.25, 400, 400)"></path><path d="M278.5 422.02243529558183C286.09375 414.76091185808184 324.0625 364.21501342058184 339.25 363.9302477955818C354.4375 363.64548217058183 384.8125 417.75095092058183 400 419.74431029558184C415.1875 421.7376696705818 445.5625 377.8363024830818 460.75 379.87712279558184C475.9375 381.91794310808183 513.90625 429.0466540455818 521.5 436.0708727955818 " transform="rotate(10.5, 400, 400)"></path><path d="M298.75 418.35202941298485C305.078125 412.30075988173485 336.71875 370.17917785048485 349.375 369.94187316298485C362.03125 369.70456847548485 387.34375 414.79245910048485 400 416.45359191298485C412.65625 418.11472472548485 437.96875 381.53025206923485 450.625 383.23093566298485C463.28125 384.93161925673485 494.921875 424.20554503798485 501.25 430.05906066298485 " transform="rotate(8.75, 400, 400)"></path><path d="M319 414.68162353038787C324.0625 409.84060790538786 349.375 376.14334228038786 359.5 375.9534985303879C369.625 375.76365478038787 389.875 411.83396728038787 400 413.16287353038786C410.125 414.4917797803879 430.375 385.2242016553879 440.5 386.58474853038786C450.625 387.94529540538787 475.9375 419.3644360303879 481 424.0472485303879 " transform="rotate(7, 400, 400)"></path><path d="M339.25 411.0112176477909C343.046875 407.3804559290409 362.03125 382.1075067102909 369.625 381.96512389779093C377.21875 381.8227410852909 392.40625 408.8754754602909 400 409.8721551477909C407.59375 410.8688348352909 422.78125 388.9181512415409 430.375 389.9385613977909C437.96875 390.9589715540409 456.953125 414.5233270227909 460.75 418.03543639779093 " transform="rotate(5.25, 400, 400)"></path><path d="M359.5 407.34081176519396C362.03125 404.9203039526939 374.6875 388.0716711401939 379.75 387.9767492651939C384.8125 387.88182739019396 394.9375 405.91698364019396 400 406.5814367651939C405.0625 407.24588989019395 415.1875 392.61210082769395 420.25 393.2923742651939C425.3125 393.97264770269396 437.96875 409.68221801519394 440.5 412.0236242651939 " transform="rotate(3.5, 400, 400)"></path><path d="M379.75 403.6704077899456C381.015625 402.4601538836956 387.34375 394.0358374774456 389.875 393.9883765399456C392.40625 393.9409156024456 397.46875 402.9584937274456 400 403.2907202899456C402.53125 403.6229468524456 407.59375 396.3060523211956 410.125 396.6461890399456C412.65625 396.9863257586956 418.984375 404.8411109149456 420.25 406.0118140399456 " transform="rotate(1.75, 400, 400)"></path></g></svg>